<svg width="154" height="104" viewBox="0 0 154 104" fill="none" xmlns="http://www.w3.org/2000/svg">
<mask id="path-1-inside-1" fill="white">
<path d="M80.826 81.1816C84.7312 85.0868 84.7712 91.5169 80.1857 94.5949C74.5679 98.3659 68.2339 101.011 61.5339 102.344C51.546 104.331 41.1933 103.311 31.7849 99.414C22.3766 95.5169 14.3351 88.9175 8.67744 80.4502C3.01977 71.9829 6.27192e-07 62.028 0 51.8445C-6.27192e-07 41.6609 3.01977 31.7061 8.67744 23.2388C14.3351 14.7715 22.3766 8.17202 31.7849 4.27495C41.1933 0.377878 51.546 -0.641775 61.5339 1.34493C68.2339 2.67766 74.5679 5.32308 80.1857 9.09401C84.7712 12.1721 84.7312 18.6022 80.826 22.5074L58.56 44.7734C54.6547 48.6787 54.6547 55.0103 58.56 58.9156L80.826 81.1816Z"/>
</mask>
<path d="M80.826 81.1816C84.7312 85.0868 84.7712 91.5169 80.1857 94.5949C74.5679 98.3659 68.2339 101.011 61.5339 102.344C51.546 104.331 41.1933 103.311 31.7849 99.414C22.3766 95.5169 14.3351 88.9175 8.67744 80.4502C3.01977 71.9829 6.27192e-07 62.028 0 51.8445C-6.27192e-07 41.6609 3.01977 31.7061 8.67744 23.2388C14.3351 14.7715 22.3766 8.17202 31.7849 4.27495C41.1933 0.377878 51.546 -0.641775 61.5339 1.34493C68.2339 2.67766 74.5679 5.32308 80.1857 9.09401C84.7712 12.1721 84.7312 18.6022 80.826 22.5074L58.56 44.7734C54.6547 48.6787 54.6547 55.0103 58.56 58.9156L80.826 81.1816Z" stroke="url(#paint0_linear)" stroke-width="30" mask="url(#path-1-inside-1)"/>
<path d="M146.5 51.5C146.5 75.8697 126.956 95.5 103 95.5C79.0444 95.5 59.5 75.8697 59.5 51.5C59.5 27.1303 79.0444 7.5 103 7.5C126.956 7.5 146.5 27.1303 146.5 51.5Z" stroke="url(#paint1_linear)" stroke-width="15"/>
<defs>
<linearGradient id="paint0_linear" x1="10.8642" y1="91.0275" x2="93.4008" y2="12.8159" gradientUnits="userSpaceOnUse">
<stop stop-color="#08CBFF"/>
<stop offset="1" stop-color="#186DFF"/>
</linearGradient>
<linearGradient id="paint1_linear" x1="62.761" y1="90.6915" x2="145.268" y2="13.2668" gradientUnits="userSpaceOnUse">
<stop stop-color="#08CBFF"/>
<stop offset="1" stop-color="#186DFF"/>
</linearGradient>
</defs>
</svg>